<svg xmlns="http://www.w3.org/2000/svg" width="478.99999999999994" height="35" viewBox="0 0 478.99999999999994 35"><rect class="svg__rect" x="0" y="0" width="142.71999999999997" height="35" fill="#31C4F3"/><rect class="svg__rect" x="140.71999999999997" y="0" width="338.28" height="35" fill="#389AD5"/><path class="svg__text" d="M13.95 18.19L13.95 18.19L13.95 17.39Q13.95 16.19 14.38 15.27Q14.80 14.35 15.60 13.85Q16.40 13.35 17.45 13.35L17.45 13.35Q18.86 13.35 19.73 14.12Q20.59 14.89 20.73 16.29L20.73 16.29L19.25 16.29Q19.14 15.37 18.71 14.96Q18.28 14.55 17.45 14.55L17.45 14.55Q16.48 14.55 15.97 15.26Q15.45 15.96 15.44 17.33L15.44 17.33L15.44 18.09Q15.44 19.47 15.93 20.20Q16.43 20.92 17.38 20.92L17.38 20.92Q18.25 20.92 18.69 20.53Q19.13 20.14 19.25 19.22L19.25 19.22L20.73 19.22Q20.60 20.59 19.72 21.35Q18.84 22.12 17.38 22.12L17.38 22.12Q16.36 22.12 15.59 21.63Q14.81 21.15 14.39 20.26Q13.97 19.37 13.95 18.19ZM26.52 22L25.04 22L25.04 13.47L28.04 13.47Q29.52 13.47 30.32 14.13Q31.12 14.79 31.12 16.05L31.12 16.05Q31.12 16.90 30.71 17.48Q30.30 18.06 29.56 18.37L29.56 18.37L31.47 21.92L31.47 22L29.89 22L28.17 18.71L26.52 18.71L26.52 22ZM26.52 14.66L26.52 17.52L28.05 17.52Q28.80 17.52 29.22 17.15Q29.64 16.77 29.64 16.11L29.64 16.11Q29.64 15.43 29.25 15.05Q28.86 14.68 28.09 14.66L28.09 14.66L26.52 14.66ZM41.09 22L35.52 22L35.52 13.47L41.05 13.47L41.05 14.66L37.00 14.66L37.00 17.02L40.50 17.02L40.50 18.19L37.00 18.19L37.00 20.82L41.09 20.82L41.09 22ZM46.07 22L44.53 22L47.75 13.47L49.08 13.47L52.31 22L50.76 22L50.06 20.01L46.76 20.01L46.07 22ZM48.41 15.28L47.18 18.82L49.65 18.82L48.41 15.28ZM57.95 14.66L55.31 14.66L55.31 13.47L62.08 13.47L62.08 14.66L59.42 14.66L59.42 22L57.95 22L57.95 14.66ZM71.41 22L65.83 22L65.83 13.47L71.37 13.47L71.37 14.66L67.31 14.66L67.31 17.02L70.82 17.02L70.82 18.19L67.31 18.19L67.31 20.82L71.41 20.82L71.41 22ZM78.06 22L75.61 22L75.61 13.47L78.13 13.47Q79.26 13.47 80.13 13.97Q81.01 14.48 81.49 15.40Q81.97 16.33 81.97 17.52L81.97 17.52L81.97 17.95Q81.97 19.16 81.49 20.08Q81.00 21.00 80.11 21.50Q79.22 22 78.06 22L78.06 22ZM77.09 14.66L77.09 20.82L78.06 20.82Q79.22 20.82 79.85 20.09Q80.47 19.36 80.48 17.99L80.48 17.99L80.48 17.52Q80.48 16.13 79.88 15.40Q79.27 14.66 78.13 14.66L78.13 14.66L77.09 14.66ZM93.79 22L91.82 13.47L93.30 13.47L94.62 19.88L96.25 13.47L97.49 13.47L99.10 19.89L100.41 13.47L101.89 13.47L99.92 22L98.50 22L96.88 15.77L95.22 22L93.79 22ZM107.52 22L106.05 22L106.05 13.47L107.52 13.47L107.52 22ZM114.01 14.66L111.38 14.66L111.38 13.47L118.14 13.47L118.14 14.66L115.48 14.66L115.48 22L114.01 22L114.01 14.66ZM123.38 22L121.90 22L121.90 13.47L123.38 13.47L123.38 17.02L127.20 17.02L127.20 13.47L128.67 13.47L128.67 22L127.20 22L127.20 18.21L123.38 18.21L123.38 22Z" fill="#FFFFFF"/><path class="svg__text" d="M157.29 22L154.91 22L154.91 13.60L158.75 13.60Q159.89 13.60 160.73 13.98Q161.57 14.35 162.03 15.06Q162.48 15.76 162.48 16.71L162.48 16.71Q162.48 17.66 162.03 18.35Q161.57 19.05 160.73 19.42Q159.89 19.80 158.75 19.80L158.75 19.80L157.29 19.80L157.29 22ZM157.29 15.47L157.29 17.93L158.61 17.93Q159.34 17.93 159.71 17.61Q160.08 17.29 160.08 16.71L160.08 16.71Q160.08 16.12 159.71 15.80Q159.34 15.47 158.61 15.47L158.61 15.47L157.29 15.47ZM169.36 18.95L166.16 13.60L168.67 13.60L170.66 16.94L172.65 13.60L174.95 13.60L171.74 18.99L171.74 22L169.36 22L169.36 18.95ZM180.83 15.48L178.25 15.48L178.25 13.60L185.77 13.60L185.77 15.48L183.20 15.48L183.20 22L180.83 22L180.83 15.48ZM192.52 22L190.14 22L190.14 13.60L192.52 13.60L192.52 16.76L195.76 16.76L195.76 13.60L198.13 13.60L198.13 22L195.76 22L195.76 18.72L192.52 18.72L192.52 22ZM202.87 17.80L202.87 17.80Q202.87 16.55 203.47 15.55Q204.07 14.56 205.14 14.00Q206.20 13.43 207.53 13.43L207.53 13.43Q208.86 13.43 209.92 14.00Q210.99 14.56 211.59 15.55Q212.20 16.55 212.20 17.80L212.20 17.80Q212.20 19.05 211.59 20.04Q210.99 21.04 209.93 21.60Q208.87 22.17 207.53 22.17L207.53 22.17Q206.20 22.17 205.14 21.60Q204.07 21.04 203.47 20.04Q202.87 19.05 202.87 17.80ZM205.26 17.80L205.26 17.80Q205.26 18.51 205.57 19.05Q205.87 19.60 206.38 19.90Q206.90 20.20 207.53 20.20L207.53 20.20Q208.17 20.20 208.69 19.90Q209.20 19.60 209.50 19.05Q209.80 18.51 209.80 17.80L209.80 17.80Q209.80 17.09 209.50 16.54Q209.20 16 208.69 15.70Q208.17 15.40 207.53 15.40L207.53 15.40Q206.89 15.40 206.38 15.70Q205.87 16 205.57 16.54Q205.26 17.09 205.26 17.80ZM219.26 22L216.93 22L216.93 13.60L218.89 13.60L222.60 18.07L222.60 13.60L224.92 13.60L224.92 22L222.97 22L219.26 17.52L219.26 22ZM229.58 20.75L229.58 20.75Q229.58 20.15 229.96 19.78Q230.35 19.41 230.95 19.41L230.95 19.41Q231.54 19.41 231.92 19.78Q232.30 20.15 232.30 20.75L232.30 20.75Q232.30 21.03 232.23 21.30Q232.16 21.58 231.91 22.13L231.91 22.13L231.16 23.89L229.73 23.89L230.29 21.93Q229.95 21.77 229.77 21.47Q229.58 21.16 229.58 20.75ZM246.27 22L243.94 22L243.94 13.60L245.89 13.60L249.60 18.07L249.60 13.60L251.93 13.60L251.93 22L249.98 22L246.27 17.52L246.27 22ZM256.66 17.80L256.66 17.80Q256.66 16.55 257.27 15.55Q257.87 14.56 258.93 14.00Q260.00 13.43 261.33 13.43L261.33 13.43Q262.66 13.43 263.72 14.00Q264.78 14.56 265.39 15.55Q266.00 16.55 266.00 17.80L266.00 17.80Q266.00 19.05 265.39 20.04Q264.78 21.04 263.72 21.60Q262.66 22.17 261.33 22.17L261.33 22.17Q260.00 22.17 258.93 21.60Q257.87 21.04 257.27 20.04Q256.66 19.05 256.66 17.80ZM259.06 17.80L259.06 17.80Q259.06 18.51 259.36 19.05Q259.66 19.60 260.18 19.90Q260.69 20.20 261.33 20.20L261.33 20.20Q261.96 20.20 262.48 19.90Q263.00 19.60 263.29 19.05Q263.59 18.51 263.59 17.80L263.59 17.80Q263.59 17.09 263.29 16.54Q263.00 16 262.48 15.70Q261.96 15.40 261.33 15.40L261.33 15.40Q260.69 15.40 260.17 15.70Q259.66 16 259.36 16.54Q259.06 17.09 259.06 17.80ZM274.70 22L270.72 22L270.72 13.60L274.70 13.60Q276.08 13.60 277.15 14.12Q278.21 14.63 278.80 15.58Q279.39 16.53 279.39 17.80L279.39 17.80Q279.39 19.07 278.80 20.02Q278.21 20.97 277.15 21.48Q276.08 22 274.70 22L274.70 22ZM273.10 15.50L273.10 20.10L274.60 20.10Q275.68 20.10 276.33 19.49Q276.99 18.88 276.99 17.80L276.99 17.80Q276.99 16.72 276.33 16.11Q275.68 15.50 274.60 15.50L274.60 15.50L273.10 15.50ZM290.86 22L284.12 22L284.12 13.60L290.71 13.60L290.71 15.44L286.47 15.44L286.47 16.85L290.21 16.85L290.21 18.63L286.47 18.63L286.47 20.17L290.86 20.17L290.86 22ZM295.16 20.75L295.16 20.75Q295.16 20.15 295.55 19.78Q295.93 19.41 296.53 19.41L296.53 19.41Q297.12 19.41 297.50 19.78Q297.89 20.15 297.89 20.75L297.89 20.75Q297.89 21.03 297.82 21.30Q297.75 21.58 297.50 22.13L297.50 22.13L296.74 23.89L295.31 23.89L295.87 21.93Q295.54 21.77 295.35 21.47Q295.16 21.16 295.16 20.75ZM310.94 22L308.51 22L312.22 13.60L314.56 13.60L318.28 22L315.81 22L315.15 20.37L311.60 20.37L310.94 22ZM313.37 15.93L312.29 18.61L314.45 18.61L313.37 15.93ZM324.77 22L322.43 22L322.43 13.60L324.39 13.60L328.10 18.07L328.10 13.60L330.43 13.60L330.43 22L328.47 22L324.77 17.52L324.77 22ZM339.56 22L335.59 22L335.59 13.60L339.56 13.60Q340.94 13.60 342.01 14.12Q343.08 14.63 343.66 15.58Q344.25 16.53 344.25 17.80L344.25 17.80Q344.25 19.07 343.66 20.02Q343.08 20.97 342.01 21.48Q340.94 22 339.56 22L339.56 22ZM337.97 15.50L337.97 20.10L339.47 20.10Q340.54 20.10 341.20 19.49Q341.85 18.88 341.85 17.80L341.85 17.80Q341.85 16.72 341.20 16.11Q340.54 15.50 339.47 15.50L339.47 15.50L337.97 15.50ZM354.88 20.93L354.88 20.93L356.17 19.40Q356.84 20.27 357.61 20.27L357.61 20.27Q357.62 20.27 357.62 20.27L357.62 20.27Q358.14 20.27 358.41 19.96Q358.68 19.65 358.68 19.05L358.68 19.05L358.68 15.44L355.78 15.44L355.78 13.60L361.03 13.60L361.03 18.91Q361.03 20.54 360.21 21.36Q359.39 22.17 357.79 22.17L357.79 22.17Q356.87 22.17 356.11 21.85Q355.36 21.53 354.88 20.93ZM367.54 22L365.11 22L368.82 13.60L371.17 13.60L374.88 22L372.41 22L371.75 20.37L368.20 20.37L367.54 22ZM369.98 15.93L368.89 18.61L371.05 18.61L369.98 15.93ZM381.62 22L378.03 13.60L380.60 13.60L382.88 19.07L385.20 13.60L387.55 13.60L383.96 22L381.62 22ZM393.13 22L390.70 22L394.41 13.60L396.75 13.60L400.47 22L398.00 22L397.34 20.37L393.79 20.37L393.13 22ZM395.56 15.93L394.48 18.61L396.64 18.61L395.56 15.93ZM404.04 21.24L404.04 21.24L404.82 19.49Q405.38 19.86 406.12 20.09Q406.87 20.32 407.59 20.32L407.59 20.32Q408.95 20.32 408.96 19.64L408.96 19.64Q408.96 19.28 408.57 19.11Q408.18 18.93 407.31 18.74L407.31 18.74Q406.36 18.53 405.73 18.30Q405.09 18.06 404.64 17.55Q404.18 17.03 404.18 16.16L404.18 16.16Q404.18 15.39 404.60 14.77Q405.02 14.15 405.86 13.79Q406.69 13.43 407.90 13.43L407.90 13.43Q408.72 13.43 409.53 13.62Q410.34 13.80 410.95 14.17L410.95 14.17L410.22 15.93Q409.02 15.28 407.89 15.28L407.89 15.28Q407.18 15.28 406.86 15.49Q406.53 15.70 406.53 16.04L406.53 16.04Q406.53 16.37 406.92 16.54Q407.30 16.71 408.15 16.89L408.15 16.89Q409.11 17.10 409.74 17.33Q410.37 17.56 410.83 18.07Q411.30 18.58 411.30 19.46L411.30 19.46Q411.30 20.21 410.88 20.83Q410.46 21.44 409.62 21.80Q408.78 22.17 407.58 22.17L407.58 22.17Q406.56 22.17 405.60 21.92Q404.63 21.67 404.04 21.24ZM415.44 17.80L415.44 17.80Q415.44 16.54 416.04 15.54Q416.64 14.55 417.69 13.99Q418.74 13.43 420.06 13.43L420.06 13.43Q421.22 13.43 422.14 13.84Q423.06 14.25 423.68 15.02L423.68 15.02L422.17 16.39Q421.35 15.40 420.19 15.40L420.19 15.40Q419.50 15.40 418.97 15.70Q418.43 16 418.14 16.54Q417.84 17.09 417.84 17.80L417.84 17.80Q417.84 18.51 418.14 19.05Q418.43 19.60 418.97 19.90Q419.50 20.20 420.19 20.20L420.19 20.20Q421.35 20.20 422.17 19.22L422.17 19.22L423.68 20.58Q423.07 21.35 422.14 21.76Q421.22 22.17 420.06 22.17L420.06 22.17Q418.74 22.17 417.69 21.61Q416.64 21.05 416.04 20.05Q415.44 19.06 415.44 17.80ZM430.59 22L428.21 22L428.21 13.60L432.06 13.60Q433.20 13.60 434.04 13.98Q434.87 14.35 435.33 15.06Q435.79 15.76 435.79 16.71L435.79 16.71Q435.79 17.62 435.36 18.30Q434.93 18.98 434.14 19.36L434.14 19.36L435.95 22L433.41 22L431.89 19.77L430.59 19.77L430.59 22ZM430.59 15.47L430.59 17.93L431.91 17.93Q432.64 17.93 433.01 17.61Q433.39 17.29 433.39 16.71L433.39 16.71Q433.39 16.12 433.01 15.79Q432.64 15.47 431.91 15.47L431.91 15.47L430.59 15.47ZM442.95 22L440.58 22L440.58 13.60L442.95 13.60L442.95 22ZM450.51 22L448.13 22L448.13 13.60L451.97 13.60Q453.11 13.60 453.95 13.98Q454.79 14.35 455.25 15.06Q455.70 15.76 455.70 16.71L455.70 16.71Q455.70 17.66 455.25 18.35Q454.79 19.05 453.95 19.42Q453.11 19.80 451.97 19.80L451.97 19.80L450.51 19.80L450.51 22ZM450.51 15.47L450.51 17.93L451.83 17.93Q452.56 17.93 452.93 17.61Q453.30 17.29 453.30 16.71L453.30 16.71Q453.30 16.12 452.93 15.80Q452.56 15.47 451.83 15.47L451.83 15.47L450.51 15.47ZM462.25 15.48L459.67 15.48L459.67 13.60L467.19 13.60L467.19 15.48L464.62 15.48L464.62 22L462.25 22L462.25 15.48Z" fill="#FFFFFF" x="153.71999999999997"/></svg>